<?xml version="1.0" encoding="iso-8859-1"?>
<!-- Generator: Adobe Illustrator 19.0.0, SVG Export Plug-In . SVG Version: 6.00 Build 0)  -->
<svg version="1.1" id="Capa_1" xmlns="http://www.w3.org/2000/svg" xmlns:xlink="http://www.w3.org/1999/xlink" x="0px" y="0px"
	 viewBox="0 0 480 480" style="enable-background:new 0 0 480 480;" xml:space="preserve">
<g>
	<g>
		<g>
			<path d="M472,168h-80v-56h-16v56h-8V8c0-4.418-3.582-8-8-8H120c-4.418,0-8,3.582-8,8v160h-8v-56H88v56H8c-4.418,0-8,3.582-8,8
				v192c0,4.418,3.582,8,8,8h104v96c0,4.418,3.582,8,8,8h240c4.418,0,8-3.582,8-8v-96h104c4.418,0,8-3.582,8-8V176
				C480,171.582,476.418,168,472,168z M128,16h224v152H128V16z M352,464H128V312h224V464z M464,360h-96v-48h32v-16H80v16h32v48H16
				V184h448V360z"/>
			<rect x="48" y="216" width="16" height="16"/>
			<rect x="80" y="216" width="80" height="16"/>
			<rect x="144" y="416" width="192" height="16"/>
			<rect x="144" y="368" width="192" height="16"/>
			<rect x="144" y="320" width="192" height="16"/>
		</g>
	</g>
</g>
<g>
</g>
<g>
</g>
<g>
</g>
<g>
</g>
<g>
</g>
<g>
</g>
<g>
</g>
<g>
</g>
<g>
</g>
<g>
</g>
<g>
</g>
<g>
</g>
<g>
</g>
<g>
</g>
<g>
</g>
</svg>
